<?xml version="1.0" ?><!DOCTYPE svg  PUBLIC '-//W3C//DTD SVG 1.1//EN'  'http://www.w3.org/Graphics/SVG/1.1/DTD/svg11.dtd'><svg height="200px" style="enable-background:new 0 0 512 512;" version="1.1" viewBox="0 0 512 512" width="100%" xml:space="preserve" xmlns="http://www.w3.org/2000/svg" xmlns:xlink="http://www.w3.org/1999/xlink"><g id="_x31_31_x2C__Image_x2C__Photo_x2C__Basic_x2C__Ui"><g><path fill="#fff" d="M364.5,171h-217c-9.098,0-16.5,7.402-16.5,16.5v137c0,9.098,7.402,16.5,16.5,16.5h217c9.098,0,16.5-7.402,16.5-16.5v-137    C381,178.402,373.598,171,364.5,171z M351,306c0,2.762-2.238,5-5,5H166c-2.761,0-5-2.238-5-5v-50c0-1.574,0.741-3.056,2-4l40-30    c1.854-1.39,4.421-1.323,6.201,0.159l56.492,47.077l26.771-26.771c1.803-1.801,4.671-1.958,6.658-0.369l50,40    C350.31,283.045,351,284.481,351,286V306z M336,231c-8.271,0-15-6.729-15-15s6.729-15,15-15s15,6.729,15,15S344.271,231,336,231z"/><path d="M269.535,279.535c-1.829,1.829-4.749,1.962-6.736,0.306l-56.962-47.468L171,258.5V301h170v-12.597L296.371,252.7    L269.535,279.535z"/><path d="M421.78,119.099c-40.99-49.637-101.46-78.104-165.903-78.104c-49.763,0-98.338,17.482-136.778,49.226    c-44.281,36.567-71.672,88.19-77.127,145.36c-5.454,57.169,11.681,113.04,48.249,157.321    c40.99,49.637,101.459,78.104,165.903,78.104c49.762,0,98.337-17.481,136.778-49.226    C484.313,346.293,497.268,210.511,421.78,119.099z M391,324.5c0,14.612-11.888,26.5-26.5,26.5h-217    c-14.612,0-26.5-11.888-26.5-26.5v-137c0-14.612,11.888-26.5,26.5-26.5h217c14.612,0,26.5,11.888,26.5,26.5V324.5z"/><path d="M336,211c-2.757,0-5,2.243-5,5s2.243,5,5,5s5-2.243,5-5S338.757,211,336,211z"/></g></g><g id="Layer_1"/></svg>
